<svg xmlns="http://www.w3.org/2000/svg" width="166.88" height="67.05" viewBox="0 0 166.88 67.05"><title>the glendale logo</title><path d="M626.45,682.72c0,18.25-37.14,33-83,33s-83-14.79-83-33,37.14-33,83-33,83,14.79,83,33" transform="translate(-460.06 -649.2)" fill="#231f20"/><ellipse cx="83.44" cy="33.53" rx="82.95" ry="33.04" fill="none" stroke="#c2b6ab" stroke-width="0.97"/><polygon points="16.69 47.69 74.02 47.45 74.02 48.25 16.69 47.99 16.69 47.69" fill="#c2b6ab"/><path d="M549.32,697.15V697H550a1.51,1.51,0,1,1,0,.2Zm-10.78-.2a11.63,11.63,0,0,0,4.94-2.47,11.63,11.63,0,0,0,4.94,2.47v.2a11.65,11.65,0,0,0-4.94,2.47,11.64,11.64,0,0,0-4.94-2.47Zm-1.56.2a1.51,1.51,0,1,1,0-.2h.66v.2H537" transform="translate(-460.06 -649.2)" fill="#c2b6ab"/><polygon points="150.19 48.02 92.86 48.26 92.86 47.45 150.19 47.72 150.19 48.02" fill="#c2b6ab"/><path d="M578.92,682.64l-.22-.06-10.07.06-.12.19a21.91,21.91,0,0,0-1.5,4.06,1.68,1.68,0,0,0,.41,1.37v0a17.75,17.75,0,0,0-3.4,0c-.22,0-.56.22-.72,0a4.7,4.7,0,0,0,1.9-1.28l.72-1.12,2.09-4.59,6.14-14,.19-.41.13.13q4.21,9.87,8.39,19.68M574.21,671l-.28-.65-.06.06-4.18,9.7-.53,1.22v.12h9.14l.06,0Z" transform="translate(-460.06 -649.2)" fill="#fff"/><path d="M604.72,691.76c-.08.06-.16.26-.34.43-2.27,2.2-7.64,3-10.68,2.37-2.59-.52-7.09-2.51-9.43-6-2.51-3.69-2.44-4-4-7.7l-1.46-3.45-.8-2.1-1.54,1.15.9,2.21,0,0,.08.15,1.64,4c.27.71.56,1.44.88,2.17l.17.42a1.91,1.91,0,0,0,.26.48,13.55,13.55,0,0,0,2.15,3.2A20.1,20.1,0,0,0,593.66,695c3.43.51,8.23-.05,11-2.44.14-.12.35-.21.49-.33.3-.26,0-.78-.41-.43" transform="translate(-460.06 -649.2)" fill="#fff"/><path d="M498.79,664.8c.31.25,0,.78.09,1.19l-.25,2.12a.19.19,0,0,1-.31,0,5.33,5.33,0,0,0-3.56-3.68c-4.05-1.53-9.32-.9-12.51,2.18-3.4,3.12-3.12,8.51-2.18,12.63.75,3,3,6.27,6.14,7.39,3,1.37,7,.84,10.17.09a65.55,65.55,0,0,0,.16-6.58,2.25,2.25,0,0,0-1.09-1.71c-.12-.09-.31-.09-.47-.19,0-.16.19-.16.31-.16a18.09,18.09,0,0,0,4.68,0c.06.06.06.13,0,.22a1.68,1.68,0,0,0-1.15,1.5,59.46,59.46,0,0,0-.06,8.17l-.19.09c-3.93-.25-7.7.9-11.54.25a10.91,10.91,0,0,1-8.36-5.8c-2.28-4.37-2-10.6.9-14.5,3.09-4.62,8.64-5.83,13.94-4.74,1.84.37,3.46,1.12,5.27,1.59" transform="translate(-460.06 -649.2)" fill="#fff"/><path d="M505.37,667.07c0,.13-.12.19-.22.22a1.94,1.94,0,0,0-1.56,1l-.12,1-.16,10.17.06,7.8a33.88,33.88,0,0,0,7.33,0,2.18,2.18,0,0,0,1.31-1.31.15.15,0,0,1,.13,0,4.92,4.92,0,0,1-.16.94,6.21,6.21,0,0,1-.72,1.43c-4.4.59-4.74-.44-11-.06.62-.25.65-.31.87-.72l.28-.78.13-10.66c0-2.34.16-4.93,0-7.27a1.5,1.5,0,0,0-.69-1.4,7.85,7.85,0,0,0-.78-.28v-.06a18.76,18.76,0,0,0,5.11-.06.3.3,0,0,1,.22.06" transform="translate(-460.06 -649.2)" fill="#fff"/><path d="M520.37,677.58a26.23,26.23,0,0,0-4.43.13l0,.13c0,3.09-.12,6.3.06,9.42l.13.06c2.12-.16,4.83.15,7-.28a2.66,2.66,0,0,0,1.53-1.43.07.07,0,0,1,.13,0l.06,0a9,9,0,0,1-.72,2.12,1.46,1.46,0,0,1-.9.56c-3.65,0-6.83-.22-10.54,0a.23.23,0,0,1-.06-.19,2,2,0,0,0,1.25-1.15l.13-.81,0-5.58V669.82c-.06-.75,0-1.78-.75-2.31-.12-.19-.47-.12-.47-.44h.13c2.74,0,5.33,0,8.11-.09.19,0,.44,0,.56.16a3.13,3.13,0,0,1,.5,1.68c-.12.09-.19-.06-.25-.09a1.83,1.83,0,0,0-1.87-.84l-4,.09-.09,0c0,2.9-.09,5.77,0,8.61l.13,0a38.21,38.21,0,0,0,5-.22,1.68,1.68,0,0,0,1.06-1c0-.06.09-.06.19,0a27,27,0,0,0-.06,3.18.1.1,0,0,1-.12,0s.25-.84-1.78-1" transform="translate(-460.06 -649.2)" fill="#fff"/><path d="M528.54,686.88a1.36,1.36,0,0,0,.78,1c.22.13.53.09.72.28l-.12.13a28.3,28.3,0,0,0-4.4,0c-.09-.25.56-.28.78-.44a1.59,1.59,0,0,0,.81-1.53l.19-17.87a2.52,2.52,0,0,0-1.68-1.18c-.12-.06-.06-.12-.06-.19l.19-.06a14.21,14.21,0,0,0,4-.12c.06.25-.19.37-.19.59a1.54,1.54,0,0,0,.25,1.22L542.94,684l.09-.06.06-14.13c-.06-.81,0-1.65-.78-2.15-.22-.22-.62-.16-.84-.41l.22-.09a21.5,21.5,0,0,0,4.24-.12l.06.06c.06.16-.19.22-.25.25a1.66,1.66,0,0,0-1.09.69c-.5,1.43-.22,2.74-.34,4.33V673l-.12,15c0,.15.06.34-.06.4l-.09-.06-7-8.26c-3-3.37-5.71-6.8-8.61-10.07h0c0,2.71-.25,14.25.13,16.9" transform="translate(-460.06 -649.2)" fill="#fff"/><path d="M547,668.16a2.46,2.46,0,0,0-1.15-.9l0-.25a29.58,29.58,0,0,0,4.43.22c5.11-.53,10.92-.25,13.29,4.86,1.9,4.24,1.71,10.17-1.75,13.63-2.43,2.34-5.61,3-9.08,2.81a31.26,31.26,0,0,0-7-.06c-.06,0-.06-.06-.06-.12a2.28,2.28,0,0,0,1.56-1.62l.06-.9.09-13.88a10.81,10.81,0,0,0-.31-3.77m10.57.13a18.14,18.14,0,0,0-8.39-.19l-.06,2.18-.06,12.44.09,4.49c3.18.87,7.42,1,10.17-1,3.77-2.84,3.74-8.36,2.65-12.47a9.57,9.57,0,0,0-2.34-4.05,7.42,7.42,0,0,0-2.06-1.37" transform="translate(-460.06 -649.2)" fill="#fff"/><path d="M590.35,667.07c0,.13-.12.19-.22.22a1.94,1.94,0,0,0-1.56,1l-.12,1-.15,10.17.06,7.8a33.87,33.87,0,0,0,7.33,0,2.18,2.18,0,0,0,1.31-1.31.15.15,0,0,1,.13,0,4.92,4.92,0,0,1-.16.94,6.13,6.13,0,0,1-.72,1.43c-4.4.59-4.74-.44-11-.06.62-.25.65-.31.87-.72l.28-.78.13-10.66c0-2.34.16-4.93,0-7.27a1.5,1.5,0,0,0-.69-1.4,7.75,7.75,0,0,0-.78-.28v-.06a18.76,18.76,0,0,0,5.11-.06.3.3,0,0,1,.22.06" transform="translate(-460.06 -649.2)" fill="#fff"/><path d="M605.35,677.58a26.24,26.24,0,0,0-4.43.13l0,.13c0,3.09-.12,6.3.06,9.42l.13.06c2.12-.16,4.83.15,7-.28a2.66,2.66,0,0,0,1.53-1.43.07.07,0,0,1,.13,0l.06,0a9,9,0,0,1-.72,2.12,1.46,1.46,0,0,1-.9.56c-3.65,0-6.83-.22-10.54,0a.23.23,0,0,1-.06-.19,2,2,0,0,0,1.25-1.15l.13-.81,0-5.58V669.82c-.06-.75,0-1.78-.75-2.31-.13-.19-.47-.12-.47-.44h.13c2.74,0,5.33,0,8.11-.09.19,0,.44,0,.56.16a3.14,3.14,0,0,1,.5,1.68c-.12.09-.19-.06-.25-.09a1.84,1.84,0,0,0-1.87-.84l-4,.09-.09,0c0,2.9-.09,5.77,0,8.61l.12,0a38.2,38.2,0,0,0,5-.22,1.68,1.68,0,0,0,1.06-1c0-.06.09-.06.19,0a27.22,27.22,0,0,0-.06,3.18.1.1,0,0,1-.12,0s.25-.84-1.78-1" transform="translate(-460.06 -649.2)" fill="#fff"/><path d="M513.76,656c.34,0,.45.08.49.17a2.41,2.41,0,0,1,.09.65c-.12,0-.09-.08-.14-.13a.63.63,0,0,0-.57-.32h-3.06l0,5.49,0,1.53c0,.2.09.4.34.46a1.15,1.15,0,0,1,.27.08.08.08,0,0,1-.09.06,14.46,14.46,0,0,0-2.25,0s0-.06,0-.07a1.06,1.06,0,0,0,.62-.28,1.42,1.42,0,0,0,.13-.73l.06-4.2,0,0,0,0,0-2.27c-.9,0-1.76,0-2.66,0-.44,0-1,0-1.11.45a.11.11,0,0,1-.09,0v0a1.26,1.26,0,0,1,.55-.78s6.62,0,7.4,0" transform="translate(-460.06 -649.2)" fill="#c2b6ab"/><path d="M523.32,656c-.06.07-.18.06-.26.1-.36.13-.39.42-.39.69l-.06,6.42c0,.24,0,.52.36.62.09,0,.24,0,.26.12l0,0a18.19,18.19,0,0,0-2.11,0s0,0,0,0c.24-.07.55-.18.59-.44a1.42,1.42,0,0,0,.07-.38v-3.32h-5.85l0,0,0,3.49a.65.65,0,0,0,.41.52c.08,0,.21,0,.21,0l0,0c-.65,0-1.34,0-2,0,0,0,0,0,0,0a.68.68,0,0,0,.55-.44l0-.82,0-6.05a.49.49,0,0,0-.24-.41.9.9,0,0,0-.32-.15s.06,0,.08,0a10,10,0,0,0,2,0c-.15.12-.41.15-.51.32l-.06.15c0,1,0,2,0,2.94l.27,0,5.61,0v0a24.68,24.68,0,0,0,0-3,.55.55,0,0,0-.45-.33c0-.06.06-.06.11-.07a10.68,10.68,0,0,0,1.73,0c.06,0,.18,0,.21,0" transform="translate(-460.06 -649.2)" fill="#c2b6ab"/><path d="M527.4,660a15.89,15.89,0,0,0-2.13,0l0,0c0,1.17-.06,2.38,0,3.56l.06,0c1-.06,2.33.06,3.39-.11a1.21,1.21,0,0,0,.73-.54,0,0,0,0,1,.06,0h0a2.94,2.94,0,0,1-.34.8.74.74,0,0,1-.44.21c-1.75,0-3.29-.08-5.07,0a.08.08,0,0,1,0-.07c.18-.06.51-.19.6-.43l.06-.31,0-2.11V657c0-.28,0-.67-.36-.87-.06-.07-.22,0-.22-.16h.06c1.32,0,2.57,0,3.9,0a.62.62,0,0,1,.27.06,1,1,0,0,1,.24.64c-.06,0-.09,0-.12,0a1,1,0,0,0-.9-.32l-1.92,0h0c0,1.1,0,2.18,0,3.25h.06a23.48,23.48,0,0,0,2.42-.08.76.76,0,0,0,.51-.38s0,0,.09,0a7.88,7.88,0,0,0,0,1.2.05.05,0,0,1-.06,0s.12-.32-.85-.38" transform="translate(-460.06 -649.2)" fill="#c2b6ab"/></svg>